<svg width="577" height="537" viewBox="0 0 577 537" fill="none" xmlns="http://www.w3.org/2000/svg">
<path d="M217.254 536.976C217.879 536.979 218.504 536.982 219.148 536.986C221.248 536.993 223.348 536.987 225.448 536.981C226.952 536.984 228.455 536.987 229.958 536.991C234.046 537 238.133 536.997 242.22 536.991C244.772 536.987 247.324 536.988 249.875 536.99C250.299 536.99 250.722 536.99 251.159 536.99C252.019 536.991 252.879 536.992 253.739 536.992C261.807 536.998 269.876 536.991 277.944 536.981C284.868 536.973 291.793 536.974 298.717 536.983C306.756 536.993 314.795 536.997 322.834 536.991C323.691 536.991 324.548 536.99 325.405 536.99C325.827 536.989 326.249 536.989 326.683 536.989C329.656 536.987 332.63 536.99 335.603 536.994C339.604 537 343.605 536.996 347.606 536.985C349.076 536.982 350.547 536.983 352.018 536.987C354.021 536.993 356.024 536.986 358.027 536.976C358.613 536.981 359.199 536.985 359.802 536.989C363.723 536.953 363.723 536.953 365.759 535.838C366.896 534.576 366.993 533.964 367 532.279C367.009 531.767 367.017 531.254 367.026 530.726C367.021 529.891 367.021 529.891 367.016 529.04C367.027 528.167 367.027 528.167 367.037 527.277C367.051 526.026 367.06 524.775 367.064 523.524C367.076 520.243 367.13 516.963 367.18 513.682C367.189 513.031 367.198 512.38 367.208 511.709C367.331 503.466 367.865 495.275 368.585 487.063C368.676 485.979 368.676 485.979 368.768 484.873C369.61 475.155 371.214 465.814 373.489 456.329C373.995 454.213 374.42 452.161 374.635 449.996C374.949 447.646 375.537 445.72 376.322 443.501C377.477 440.022 378.305 436.442 379.221 432.894C381.474 424.285 384.107 415.855 387.068 407.461C387.268 406.885 387.468 406.308 387.675 405.713C390.851 396.571 394.506 387.661 398.358 378.784C399.089 377.099 399.813 375.411 400.535 373.723C403.552 366.731 407.017 360.022 410.65 353.333C410.929 352.815 411.207 352.298 411.494 351.765C422.277 331.759 434.608 312.7 448.919 295.017C449.751 293.987 450.576 292.95 451.394 291.908C454.164 288.385 457.085 285.048 460.122 281.754C461.424 280.333 462.693 278.893 463.949 277.433C465.851 275.243 467.88 273.213 469.949 271.182C471.146 269.964 472.249 268.707 473.35 267.403C475.526 264.872 477.95 262.705 480.453 260.503C481.909 259.197 483.292 257.852 484.663 256.458C487.08 254.014 489.614 251.759 492.232 249.532C492.85 249.001 493.467 248.469 494.104 247.921C498.875 243.829 503.769 239.924 508.803 236.159C509.258 235.819 509.714 235.478 510.183 235.127C524.017 224.8 538.275 215.273 553.179 206.548C554.095 206.01 554.095 206.01 555.03 205.461C559.295 202.989 563.646 200.747 568.077 198.588C568.869 198.2 569.66 197.812 570.452 197.423C571.7 196.812 572.948 196.202 574.197 195.593C575.725 194.767 575.725 194.767 577 193.493C576.901 189.316 575.084 185.958 573.256 182.269C572.785 181.305 572.785 181.305 572.304 180.322C571.33 178.339 570.344 176.363 569.352 174.389C569.057 173.801 568.762 173.213 568.458 172.607C558.034 151.985 545.344 131.937 530.159 114.469C528.643 112.714 527.184 110.925 525.733 109.116C523.685 106.609 521.565 104.183 519.367 101.807C519.037 101.451 518.707 101.095 518.368 100.728C514.839 96.9374 511.197 93.2626 507.527 89.6091C506.402 88.4886 505.281 87.3646 504.16 86.2404C500.506 82.5869 496.842 78.9945 492.869 75.6833C492.447 75.3273 492.024 74.9714 491.589 74.6046C485.983 69.9064 480.301 65.3416 474.386 61.0366C473.498 60.3817 472.611 59.7266 471.724 59.0715C465.556 54.5405 459.277 50.3276 452.716 46.39C452.173 46.0614 451.63 45.7329 451.071 45.3944C444.151 41.2099 437.218 37.1681 429.912 33.693C428.282 32.9148 426.659 32.1226 425.035 31.3304C413.623 25.7857 402.226 20.8908 390.132 17.037C388.291 16.4431 386.458 15.8267 384.626 15.2062C374.323 11.7564 363.903 9.20352 353.288 6.90775C352.584 6.7525 351.881 6.59725 351.156 6.43729C320.663 -0.249988 287.875 -1.32829 256.808 1.37546C256.154 1.43159 256.154 1.43161 255.487 1.48888C249.354 2.03402 243.337 2.99683 237.291 4.124C235.372 4.47949 233.45 4.81546 231.528 5.15403C217.321 7.70387 217.321 7.70391 210.558 9.7072C208.994 10.1655 207.425 10.602 205.855 11.0396C172.912 20.3146 141.944 34.1038 113.642 53.3949C112.881 53.9134 112.881 53.9134 112.104 54.4425C106.19 58.4934 100.46 62.7456 94.8782 67.2421C93.9518 67.9872 93.0195 68.7248 92.0867 69.4619C88.3063 72.4848 84.7348 75.6901 81.2143 79.0076C79.3597 80.7546 77.4849 82.4601 75.5503 84.1185C72.2579 86.98 69.1971 90.0675 66.1194 93.1557C65.5414 93.7308 64.9634 94.3058 64.3679 94.8983C61.1129 98.1553 57.9974 101.478 55.0055 104.977C54.3546 105.713 53.7023 106.449 53.0486 107.183C48.2797 112.582 43.8132 118.156 39.5029 123.926C38.4075 125.39 37.3032 126.847 36.1985 128.305C31.0313 135.165 26.3347 142.224 21.863 149.553C21.5527 150.056 21.2425 150.559 20.9228 151.077C15.5856 159.729 10.6811 168.589 5.9291 177.573C5.47281 178.425 5.47281 178.425 5.0073 179.294C4.17561 180.851 3.35705 182.414 2.54315 183.981C2.30145 184.431 2.05974 184.882 1.81072 185.346C0.395329 188.124 -0.387099 190.319 0.192898 193.493C2.94924 196.503 6.53604 198.096 10.1516 199.901C31.64 210.935 51.8853 224.962 70.4726 240.344C72.0504 241.644 73.6482 242.919 75.2416 244.199C78.3754 246.761 81.3499 249.468 84.3114 252.224C85.6588 253.476 87.0404 254.675 88.4418 255.866C92.2284 259.165 95.7508 262.742 99.3013 266.289C100.528 267.514 101.76 268.733 102.993 269.953C107.032 273.971 110.867 278.013 114.41 282.48C115.754 284.172 117.177 285.733 118.661 287.303C121.959 290.896 124.964 294.67 127.929 298.535C129.001 299.921 130.09 301.294 131.18 302.666C141.399 315.659 150.645 329.629 158.643 344.096C159.674 345.945 160.728 347.78 161.783 349.616C173.454 370.076 182.403 391.66 190.118 413.887C190.642 415.395 191.174 416.899 191.711 418.402C203.084 451.049 208.264 485.698 208.249 520.151C208.251 522.542 208.268 524.932 208.287 527.324C208.282 528.052 208.277 528.78 208.271 529.53C208.278 530.199 208.284 530.868 208.291 531.557C208.291 532.144 208.29 532.731 208.29 533.336C208.608 534.823 208.608 534.823 209.522 535.857C212.038 537.206 214.441 536.997 217.254 536.976Z" fill="black"/>
</svg>
